<svg xmlns="http://www.w3.org/2000/svg" viewBox="0 0 674 530" width="674" height="530" font-family="system-ui, -apple-system, sans-serif">
  <rect width="674" height="530" fill="white"/>
  <text x="110" y="22" font-size="16" font-weight="600" fill="#333">Last mile optimization pattern</text>
  <text x="110" y="40" font-size="12" fill="#666">Lots of locations, typically spread across cities, fewer across larger extents</text>
  <line x1="110" y1="50" x2="110" y2="450" stroke="#999" stroke-width="0.5" opacity="0.5"/>
  <line x1="110" y1="50" x2="650" y2="50" stroke="#999" stroke-width="0.5" opacity="0.5"/>
  <line x1="290" y1="50" x2="290" y2="450" stroke="#999" stroke-width="0.5" opacity="0.5"/>
  <line x1="110" y1="183.33333333333331" x2="650" y2="183.33333333333331" stroke="#999" stroke-width="0.5" opacity="0.5"/>
  <line x1="470" y1="50" x2="470" y2="450" stroke="#999" stroke-width="0.5" opacity="0.5"/>
  <line x1="110" y1="316.66666666666663" x2="650" y2="316.66666666666663" stroke="#999" stroke-width="0.5" opacity="0.5"/>
  <line x1="650" y1="50" x2="650" y2="450" stroke="#999" stroke-width="0.5" opacity="0.5"/>
  <line x1="110" y1="450" x2="650" y2="450" stroke="#999" stroke-width="0.5" opacity="0.5"/>
  <line x1="110" y1="450" x2="650" y2="450" stroke="#333" stroke-width="1"/>
  <line x1="110" y1="50" x2="110" y2="450" stroke="#333" stroke-width="1"/>
  <text x="200" y="474" text-anchor="middle" font-size="13" fill="#666">Local</text>
  <text x="380" y="474" text-anchor="middle" font-size="13" fill="#666">Regional</text>
  <text x="560" y="474" text-anchor="middle" font-size="13" fill="#666">(Inter)national</text>
  <text x="380" y="502" text-anchor="middle" font-size="14" font-weight="500" fill="#333">Geographical extent →</text>
  <text
  x="96"
  y="383.33333333333337"
  text-anchor="end"
  dominant-baseline="central"
  font-size="13"
  fill="#666"
  transform="rotate(-45, 96, 383.33333333333337)"
>Few</text>
  <text
  x="96"
  y="250"
  text-anchor="end"
  dominant-baseline="central"
  font-size="13"
  fill="#666"
  transform="rotate(-45, 96, 250)"
>Moderate</text>
  <text
  x="96"
  y="116.66666666666663"
  text-anchor="end"
  dominant-baseline="central"
  font-size="13"
  fill="#666"
  transform="rotate(-45, 96, 116.66666666666663)"
>Many</text>
  <text text-anchor="middle" font-size="14" font-weight="500" fill="#333" transform="translate(30, 250) rotate(-90)">Location count →</text>
  <circle cx="191.0" cy="110.0" r="48.0" fill="rgba(99, 153, 34, 0.55)" stroke="rgba(99, 153, 34, 0.9)" stroke-width="1"/>
  <circle cx="380.0" cy="110.0" r="16.5" fill="rgba(99, 153, 34, 0.55)" stroke="rgba(99, 153, 34, 0.9)" stroke-width="1"/>
  <circle cx="569.0" cy="110.0" r="8.1" fill="rgba(99, 153, 34, 0.55)" stroke="rgba(99, 153, 34, 0.9)" stroke-width="1"/>
</svg>
