<svg xmlns="http://www.w3.org/2000/svg" viewBox="0 0 714 530" width="714" height="530" font-family="system-ui, -apple-system, sans-serif">
  <rect width="714" height="530" fill="white"/>
  <text x="150" y="22" font-size="16" font-weight="600" fill="#333">Static traffic, large scale</text>
  <text x="150" y="40" font-size="12" fill="#666">Moderate number of locations, small geographic spread</text>
  <line x1="150" y1="50" x2="150" y2="450" stroke="#999" stroke-width="0.5" opacity="0.5"/>
  <line x1="150" y1="50" x2="690" y2="50" stroke="#999" stroke-width="0.5" opacity="0.5"/>
  <line x1="330" y1="50" x2="330" y2="450" stroke="#999" stroke-width="0.5" opacity="0.5"/>
  <line x1="150" y1="183.33333333333331" x2="690" y2="183.33333333333331" stroke="#999" stroke-width="0.5" opacity="0.5"/>
  <line x1="510" y1="50" x2="510" y2="450" stroke="#999" stroke-width="0.5" opacity="0.5"/>
  <line x1="150" y1="316.66666666666663" x2="690" y2="316.66666666666663" stroke="#999" stroke-width="0.5" opacity="0.5"/>
  <line x1="690" y1="50" x2="690" y2="450" stroke="#999" stroke-width="0.5" opacity="0.5"/>
  <line x1="150" y1="450" x2="690" y2="450" stroke="#999" stroke-width="0.5" opacity="0.5"/>
  <line x1="150" y1="450" x2="690" y2="450" stroke="#333" stroke-width="1"/>
  <line x1="150" y1="50" x2="150" y2="450" stroke="#333" stroke-width="1"/>
  <text x="240" y="474" text-anchor="middle" font-size="13" fill="#666">Local</text>
  <text x="420" y="474" text-anchor="middle" font-size="13" fill="#666">Regional</text>
  <text x="600" y="474" text-anchor="middle" font-size="13" fill="#666">International</text>
  <text x="420" y="502" text-anchor="middle" font-size="14" font-weight="500" fill="#333">Geographical extent →</text>
  <text
  x="136"
  y="383.33333333333337"
  text-anchor="end"
  dominant-baseline="central"
  font-size="13"
  fill="#666"
  transform="rotate(-45, 136, 383.33333333333337)"
>Few (&lt;20)</text>
  <text
  x="136"
  y="250"
  text-anchor="end"
  dominant-baseline="central"
  font-size="13"
  fill="#666"
  transform="rotate(-45, 136, 250)"
>Moderate (&lt;60)</text>
  <text
  x="136"
  y="116.66666666666663"
  text-anchor="end"
  dominant-baseline="central"
  font-size="13"
  fill="#666"
  transform="rotate(-45, 136, 116.66666666666663)"
>Many (&gt;=60)</text>
  <text text-anchor="middle" font-size="14" font-weight="500" fill="#333" transform="translate(44, 250) rotate(-90)">Location count →</text>
  <circle cx="420.0" cy="250.0" r="48.0" fill="rgba(99, 153, 34, 0.55)" stroke="rgba(99, 153, 34, 0.9)" stroke-width="1"/>
  <text x="420.0" y="250.0" text-anchor="middle" dominant-baseline="central" font-size="11" font-weight="500" fill="#222" opacity="0.8">30</text>
</svg>
